/* XPM */
static char *cn3d_xpm[] = {
/* columns rows colors chars-per-pixel */
"32 32 4 1",
"  c #008080",
". c #808080",
"X c #c0c0c0",
"o c Gray100",
/* pixels */
"oooooooooooooooooooooooooooooooo",
"oooooooooooooooooooooooooooooooo",
"ooooooooooooXX. Xooooooooooooooo",
"ooooooooXX.     Xooooooooooooooo",
"ooooooX.        Xooooooooooooooo",
"ooooo.       ...Xooooooooooooooo",
"oooo.   .XXoooooooooXXoooooooooo",
"oooo   XoooooooooooooX.Xoooooooo",
"oooo. .ooooooooooooooooX.Xoooooo",
"ooooX .oooooooooooooooooX Xooooo",
"oooooX..oooooooooooooooooX Xoooo",
"oooooooX.XoooooooooooooooX  oooo",
"oooooooooXXXooooooooooooX   oooo",
"oooooooooooXoooooooXXXX    .oooo",
"ooooooooooooXXX..         .ooooo",
"oooooooooX.             .Xoooooo",
"ooooooX.             .XXoooooooo",
"oooooX        ...XXXoooooooooooo",
"ooooX    XXXoooooooooooooooooooo",
"oooo   XooooooooooooXXXooooooooo",
"oooo. .oooooooooooooooX.Xooooooo",
"ooooo  ooooooooooooooooo..oooooo",
"oooooX..ooooooooooooooooo. Xoooo",
"oooooooX.XoooooooooooooooX .oooo",
"oooooooooXXXooooooooooooo.  oooo",
"oooooooooooXooooooooooXX.   oooo",
"ooooooooooooooooXXX..      Xoooo",
"oooooooooooooooX         .Xooooo",
"oooooooooooooooX       XXooooooo",
"oooooooooooooooX  .XXXoooooooooo",
"oooooooooooooooooooooooooooooooo",
"oooooooooooooooooooooooooooooooo"
};
