/* XPM */
static const char *cn3d_xpm[] = {
/* columns rows colors chars-per-pixel */
"32 32 149 2",
"   c black",
".  c #010001",
"X  c #010002",
"o  c #030203",
"O  c #031703",
"+  c #0B1B0C",
"@  c #100916",
"#  c #141519",
"$  c #193C23",
"%  c #1B3728",
"&  c #1B3828",
"*  c #283C38",
"=  c #114418",
"-  c #114518",
";  c #1E542A",
":  c #234B34",
">  c #254F35",
",  c #27433C",
"<  c #28433D",
"1  c #225731",
"2  c #285639",
"3  c #29503C",
"4  c #285C3B",
"5  c #226F31",
"6  c #236936",
"7  c #256D35",
"8  c #246E36",
"9  c #2A6F3F",
"0  c #227533",
"q  c #2A7C3D",
"w  c #2F6545",
"e  c #2F6645",
"r  c #2A7740",
"t  c #2E7F43",
"y  c #2F7D45",
"u  c #2D7F46",
"i  c #307748",
"p  c #34704D",
"a  c #35704E",
"s  c #31754C",
"d  c #317849",
"f  c #357B51",
"g  c #2C8140",
"h  c #2C8242",
"j  c #308842",
"k  c #34824F",
"l  c #378A4B",
"z  c #378B4C",
"x  c #378153",
"c  c #358A50",
"v  c #3D8F5C",
"b  c #3E8F5E",
"n  c #359251",
"m  c #349152",
"M  c #379154",
"N  c #389254",
"B  c #399454",
"V  c #3A9058",
"C  c #3B975C",
"Z  c #3D9C5B",
"A  c #3C995D",
"S  c #3F985E",
"D  c #3F985F",
"F  c #3FAA61",
"G  c #3FAA62",
"H  c #40935F",
"J  c #44AC5F",
"K  c #488F6A",
"L  c #409460",
"P  c #409561",
"I  c #429964",
"U  c #459169",
"Y  c #48906B",
"T  c #43A167",
"R  c #44AD60",
"E  c #43AD67",
"W  c #44A568",
"Q  c #47A76C",
"!  c #47A96C",
"~  c #47AB6F",
"^  c #46AF6C",
"/  c #4AAA6B",
"(  c #49A86D",
")  c #4AB168",
"_  c #49B26C",
"`  c #48B56F",
"'  c #49AE70",
"]  c #49AF70",
"[  c #50AB71",
"{  c #50AC72",
"}  c #47B571",
"|  c #49B071",
" . c #48B171",
".. c #48B172",
"X. c #48B771",
"o. c #4BB970",
"O. c #4AB872",
"+. c #50B479",
"@. c #4CC075",
"#. c #4BC774",
"$. c #4BC874",
"%. c #4CC976",
"&. c #4CCA76",
"*. c #4CCA77",
"=. c #4CCB77",
"-. c #4EC379",
";. c #52D07F",
":. c #53CD81",
">. c #53CE81",
",. c #53D381",
"<. c #55D281",
"1. c #55D082",
"2. c #55D584",
"3. c #55D984",
"4. c #54DC85",
"5. c #58DA87",
"6. c #58DD88",
"7. c #56E187",
"8. c #57E088",
"9. c #57E988",
"0. c #58EE8B",
"q. c #5CED8F",
"w. c #59F08C",
"e. c #5BF38F",
"r. c #5AF68C",
"t. c #5BED90",
"y. c #5EF393",
"u. c #5DF794",
"i. c #5BFA90",
"p. c #5FFF95",
"a. c #60F596",
"s. c #60FD97",
"d. c #60FB98",
"f. c #61FB98",
"g. c #63FF9B",
"h. c #63FF9D",
"j. c #63FF9E",
"k. c #66FF9F",
"l. c #66FFA0",
"z. c #66FFA1",
"x. c #66FFA2",
"c. c #67FFA2",
"v. c #69FFA8",
"b. c #6AFFA8",
"n. c #6AFFA9",
"m. c #6CFFAA",
"M. c #6CFFAC",
"N. c #6DFFAC",
"B. c None",
/* pixels */
"B.B.B.B.B.B.B.B.B.B.B.B.B.B.B.B.B.B.B.B.B.B.B.B.B.B.B.B.B.B.B.B.",
"B.B.B.B.B.B.B.B.B.B.B.B.B.B.n  .B.B.B.B.B.B.B.B.B.B.B.B.B.B.B.B.",
"B.B.B.B.B.B.B.B.B.B.B.m E 2.a.m.B.B.B.B.B.B.B.B.B.B.B.B.B.B.B.B.",
"B.B.B.B.B.B.B.B.g Q 1.u.x.n.N.b.B.B.B.B.B.B.B.B.B.B.B.B.B.B.B.B.",
"B.B.B.B.B.B.j _ 6.p.h.l.g.t.<.o.B.B.B.B.) / B.B.B.B.B.B.B.B.B.B.",
"B.B.B.B.B.( ,.w.r.9.;.| C y B.B.B.B.B.B.B.B.G +.S B.B.B.B.B.B.B.",
"B.B.B.t ~ $.#.^ P f 8 B.B.B.B.B.B.B.B.B.B.B.B.B.M U a B.B.B.B.B.",
"B.B.7 v V p 4 ; B.B.B.B.B.B.B.B.B.B.B.B.B.B.B.B.B.B.r * + B.B.B.",
"B.B.3 : $ B.B.B.B.B.B.B.B.B.B.B.B.B.B.B.B.B.B.B.B.B.B.B.X O B.B.",
"B.B.@ . B.B.B.B.B.B.B.B.B.B.B.B.B.B.B.B.B.B.B.B.B.B.B.B.o # B.B.",
"B.B.B.  B.B.B.B.B.B.B.B.B.B.B.B.B.B.B.B.B.B.B.B.B.B.- & > 2 B.B.",
"B.B.B.B., i B.B.B.B.B.B.B.B.B.B.B.B.B.B.B.B.B.B.1 e x A b 5 B.B.",
"B.B.B.B.B.s K l B.B.B.B.B.B.B.B.B.B.B.B.B.9 k I ` *.%.! u B.B.B.",
"B.B.B.B.B.B.B.B.{ R B.B.B.B.B.B.B.0 c W @.4.e.i.0.>.T B.B.B.B.B.",
"B.B.B.B.B.B.B.B.B.B.B.B.B.B.q Z O.5.y.j.c.z.s.3.' h B.B.B.B.B.B.",
"B.B.B.B.B.B.B.B.B.B.B.6 L -.q.k.v.M.n.f.7.} N B.B.B.B.B.B.B.B.B.",
"B.B.B.B.B.B.B.B.B.B X.8.d.n.M.v.k.q.-.H 6 B.B.B.B.B.B.B.B.B.B.B.",
"B.B.B.B.B.B.h ] 3.s.l.c.j.y.5.O.Z q B.B.B.B.B.B.B.B.B.B.B.B.B.B.",
"B.B.B.B.B.T :.0.i.e.4.@.W c 0 B.B.B.B.B.B.B.J [ B.B.B.B.B.B.B.B.",
"B.B.B.u ! &.=.` I k 9 B.B.B.B.B.B.B.B.B.B.B.B.B.z Y s B.B.B.B.B.",
"B.B.5 b A x w 1 B.B.B.B.B.B.B.B.B.B.B.B.B.B.B.B.B.B.d < B.B.B.B.",
"B.B.2 > % = B.B.B.B.B.B.B.B.B.B.B.B.B.B.B.B.B.B.B.B.B.B.  B.B.B.",
"B.B.# o B.B.B.B.B.B.B.B.B.B.B.B.B.B.B.B.B.B.B.B.B.B.B.B.. @ B.B.",
"B.B.O X B.B.B.B.B.B.B.B.B.B.B.B.B.B.B.B.B.B.B.B.B.B.B.$ : 3 B.B.",
"B.B.B.+ * r B.B.B.B.B.B.B.B.B.B.B.B.B.B.B.B.B.B.; 4 p V v 7 B.B.",
"B.B.B.B.B.a U M B.B.B.B.B.B.B.B.B.B.B.B.B.8 f P ^ #.$.~ t B.B.B.",
"B.B.B.B.B.B.B.D +.F B.B.B.B.B.B.B.B.y C | ;.9.r.w.,.( B.B.B.B.B.",
"B.B.B.B.B.B.B.B.B.B./ ) B.B.B.B.o.<.t.g.l.h.p.6._ j B.B.B.B.B.B.",
"B.B.B.B.B.B.B.B.B.B.B.B.B.B.B.B.b.N.n.x.u.1.Q g B.B.B.B.B.B.B.B.",
"B.B.B.B.B.B.B.B.B.B.B.B.B.B.B.B.m.a.2.E m B.B.B.B.B.B.B.B.B.B.B.",
"B.B.B.B.B.B.B.B.B.B.B.B.B.B.B.B...n B.B.B.B.B.B.B.B.B.B.B.B.B.B.",
"B.B.B.B.B.B.B.B.B.B.B.B.B.B.B.B.B.B.B.B.B.B.B.B.B.B.B.B.B.B.B.B."
};
